<?xml version="1.0" standalone="no"?>
<!DOCTYPE svg PUBLIC "-//W3C//DTD SVG 20010904//EN"
 "http://www.w3.org/TR/2001/REC-SVG-20010904/DTD/svg10.dtd">
<svg version="1.0" xmlns="http://www.w3.org/2000/svg"
 width="700.000000pt" height="700.000000pt" viewBox="0 0 700.000000 700.000000"
 preserveAspectRatio="xMidYMid meet">
<metadata>
Created by potrace 1.14, written by Peter Selinger 2001-2017
</metadata>
<g transform="translate(0.000000,700.000000) scale(0.100000,-0.100000)"
fill="#000000" stroke="none">
<path d="M50 4127 l0 -2823 646 -652 647 -652 2803 0 2804 0 0 345 0 345
-2659 0 -2658 0 -409 411 c-225 226 -426 427 -446 447 l-38 35 0 2684 0 2683
-345 0 -345 0 0 -2823z"/>
<path d="M1085 6163 l0 -788 838 -1 837 -1 0 789 0 788 -838 0 -837 0 0 -787z"/>
<path d="M1086 4048 c1 -431 2 -786 3 -789 0 -3 741 -5 1646 -5 1481 0 1645 1
1649 15 3 9 5 364 5 789 l0 772 -1652 0 -1652 0 1 -782z"/>
<path d="M1160 2760 l-75 -5 0 -405 0 -404 266 -271 c147 -148 326 -331 399
-405 l132 -135 2534 0 2534 -1 0 813 0 813 -37 0 c-581 4 -5701 3 -5753 0z"/>
</g>
</svg>
